<mxfile host="app.diagrams.net" modified="2024-01-11T09:23:14.586Z" agent="Mozilla/5.0 (Macintosh; Intel Mac OS X 10_15_7) AppleWebKit/537.36 (KHTML, like Gecko) Chrome/120.0.0.0 Safari/537.36" etag="iD3Ju689XYl8IctqNyhR" version="22.1.18" type="device">
  <diagram name="Seite-1" id="HaRtwOIu1U63mAP8ceGQ">
    <mxGraphModel dx="2261" dy="915" grid="1" gridSize="10" guides="1" tooltips="1" connect="1" arrows="1" fold="1" page="1" pageScale="1" pageWidth="827" pageHeight="1169" math="0" shadow="0">
      <root>
        <mxCell id="0" />
        <mxCell id="1" parent="0" />
        <mxCell id="QMu5wvdfi34qKT-2nAmh-1" value="cx-scm:SupplyChain" style="swimlane;fontStyle=0;childLayout=stackLayout;horizontal=1;startSize=26;fillColor=none;horizontalStack=0;resizeParent=1;resizeParentMax=0;resizeLast=0;collapsible=1;marginBottom=0;whiteSpace=wrap;html=1;" parent="1" vertex="1">
          <mxGeometry x="415" y="100" width="160" height="52" as="geometry" />
        </mxCell>
        <mxCell id="QMu5wvdfi34qKT-2nAmh-2" value="+ validityPeriod: [Start,End]" style="text;strokeColor=none;fillColor=none;align=left;verticalAlign=top;spacingLeft=4;spacingRight=4;overflow=hidden;rotatable=0;points=[[0,0.5],[1,0.5]];portConstraint=eastwest;whiteSpace=wrap;html=1;" parent="QMu5wvdfi34qKT-2nAmh-1" vertex="1">
          <mxGeometry y="26" width="160" height="26" as="geometry" />
        </mxCell>
        <mxCell id="QMu5wvdfi34qKT-2nAmh-5" value="cx-bom:BillOfMaterial" style="swimlane;fontStyle=0;childLayout=stackLayout;horizontal=1;startSize=26;fillColor=none;horizontalStack=0;resizeParent=1;resizeParentMax=0;resizeLast=0;collapsible=1;marginBottom=0;whiteSpace=wrap;html=1;" parent="1" vertex="1">
          <mxGeometry x="685" y="660" width="160" height="78" as="geometry" />
        </mxCell>
        <mxCell id="QMu5wvdfi34qKT-2nAmh-6" value="+ validityPeriod:[Start,End]" style="text;strokeColor=none;fillColor=none;align=left;verticalAlign=top;spacingLeft=4;spacingRight=4;overflow=hidden;rotatable=0;points=[[0,0.5],[1,0.5]];portConstraint=eastwest;whiteSpace=wrap;html=1;" parent="QMu5wvdfi34qKT-2nAmh-5" vertex="1">
          <mxGeometry y="26" width="160" height="26" as="geometry" />
        </mxCell>
        <mxCell id="QMu5wvdfi34qKT-2nAmh-7" value="+ quantity: [Measure, Unit]" style="text;strokeColor=none;fillColor=none;align=left;verticalAlign=top;spacingLeft=4;spacingRight=4;overflow=hidden;rotatable=0;points=[[0,0.5],[1,0.5]];portConstraint=eastwest;whiteSpace=wrap;html=1;" parent="QMu5wvdfi34qKT-2nAmh-5" vertex="1">
          <mxGeometry y="52" width="160" height="26" as="geometry" />
        </mxCell>
        <mxCell id="QMu5wvdfi34qKT-2nAmh-9" value="&lt;p style=&quot;margin:0px;margin-top:4px;text-align:center;&quot;&gt;&lt;br&gt;&lt;b&gt;cx-common:BusinessPartner&lt;/b&gt;&lt;/p&gt;" style="verticalAlign=top;align=left;overflow=fill;fontSize=12;fontFamily=Helvetica;html=1;whiteSpace=wrap;" parent="1" vertex="1">
          <mxGeometry x="930" y="230" width="170" height="60" as="geometry" />
        </mxCell>
        <mxCell id="QMu5wvdfi34qKT-2nAmh-10" value="&lt;p style=&quot;margin:0px;margin-top:4px;text-align:center;&quot;&gt;&lt;br&gt;&lt;b&gt;cx-common:Site&lt;/b&gt;&lt;/p&gt;" style="verticalAlign=top;align=left;overflow=fill;fontSize=12;fontFamily=Helvetica;html=1;whiteSpace=wrap;" parent="1" vertex="1">
          <mxGeometry x="930" y="360" width="170" height="60" as="geometry" />
        </mxCell>
        <mxCell id="QMu5wvdfi34qKT-2nAmh-11" value="&lt;p style=&quot;margin:0px;margin-top:4px;text-align:center;&quot;&gt;&lt;br&gt;&lt;b&gt;cx-common&lt;/b&gt;&lt;b style=&quot;background-color: initial;&quot;&gt;:Address&lt;/b&gt;&lt;/p&gt;" style="verticalAlign=top;align=left;overflow=fill;fontSize=12;fontFamily=Helvetica;html=1;whiteSpace=wrap;" parent="1" vertex="1">
          <mxGeometry x="930" y="490" width="170" height="60" as="geometry" />
        </mxCell>
        <mxCell id="QMu5wvdfi34qKT-2nAmh-12" value="1" style="endArrow=open;html=1;endSize=12;startArrow=diamondThin;startSize=14;startFill=0;edgeStyle=orthogonalEdgeStyle;align=left;verticalAlign=bottom;rounded=0;exitX=0.5;exitY=1;exitDx=0;exitDy=0;" parent="1" source="QMu5wvdfi34qKT-2nAmh-10" target="QMu5wvdfi34qKT-2nAmh-11" edge="1">
          <mxGeometry x="-1" y="3" relative="1" as="geometry">
            <mxPoint x="1000" y="420" as="sourcePoint" />
            <mxPoint x="1160" y="420" as="targetPoint" />
          </mxGeometry>
        </mxCell>
        <mxCell id="QMu5wvdfi34qKT-2nAmh-14" value="1" style="endArrow=open;html=1;endSize=12;startArrow=diamondThin;startSize=14;startFill=0;edgeStyle=orthogonalEdgeStyle;align=left;verticalAlign=bottom;rounded=0;exitX=0.5;exitY=1;exitDx=0;exitDy=0;entryX=0.5;entryY=0;entryDx=0;entryDy=0;" parent="1" source="QMu5wvdfi34qKT-2nAmh-9" target="QMu5wvdfi34qKT-2nAmh-10" edge="1">
          <mxGeometry x="-1" y="3" relative="1" as="geometry">
            <mxPoint x="680" y="340" as="sourcePoint" />
            <mxPoint x="840" y="340" as="targetPoint" />
          </mxGeometry>
        </mxCell>
        <mxCell id="QMu5wvdfi34qKT-2nAmh-15" value="«interface»&lt;br&gt;&lt;b&gt;Party&lt;/b&gt;" style="html=1;whiteSpace=wrap;" parent="1" vertex="1">
          <mxGeometry x="710" y="360" width="110" height="50" as="geometry" />
        </mxCell>
        <mxCell id="QMu5wvdfi34qKT-2nAmh-16" value="" style="endArrow=block;dashed=1;endFill=0;endSize=12;html=1;rounded=0;exitX=0;exitY=0.5;exitDx=0;exitDy=0;entryX=1;entryY=0.5;entryDx=0;entryDy=0;" parent="1" source="QMu5wvdfi34qKT-2nAmh-9" target="QMu5wvdfi34qKT-2nAmh-15" edge="1">
          <mxGeometry width="160" relative="1" as="geometry">
            <mxPoint x="680" y="340" as="sourcePoint" />
            <mxPoint x="840" y="340" as="targetPoint" />
          </mxGeometry>
        </mxCell>
        <mxCell id="QMu5wvdfi34qKT-2nAmh-17" value="" style="endArrow=block;dashed=1;endFill=0;endSize=12;html=1;rounded=0;exitX=0;exitY=0.5;exitDx=0;exitDy=0;entryX=1;entryY=0.5;entryDx=0;entryDy=0;" parent="1" source="QMu5wvdfi34qKT-2nAmh-10" target="QMu5wvdfi34qKT-2nAmh-15" edge="1">
          <mxGeometry width="160" relative="1" as="geometry">
            <mxPoint x="940" y="270" as="sourcePoint" />
            <mxPoint x="830" y="395" as="targetPoint" />
          </mxGeometry>
        </mxCell>
        <mxCell id="QMu5wvdfi34qKT-2nAmh-18" value="" style="endArrow=block;dashed=1;endFill=0;endSize=12;html=1;rounded=0;exitX=0;exitY=0.5;exitDx=0;exitDy=0;entryX=1.009;entryY=0.64;entryDx=0;entryDy=0;entryPerimeter=0;" parent="1" source="QMu5wvdfi34qKT-2nAmh-11" target="QMu5wvdfi34qKT-2nAmh-15" edge="1">
          <mxGeometry width="160" relative="1" as="geometry">
            <mxPoint x="940" y="400" as="sourcePoint" />
            <mxPoint x="830" y="395" as="targetPoint" />
          </mxGeometry>
        </mxCell>
        <mxCell id="QMu5wvdfi34qKT-2nAmh-19" value="&lt;p style=&quot;margin:0px;margin-top:4px;text-align:center;&quot;&gt;&lt;br&gt;&lt;b&gt;cx-core:PhysicalObject&lt;/b&gt;&lt;/p&gt;" style="verticalAlign=top;align=left;overflow=fill;fontSize=12;fontFamily=Helvetica;html=1;whiteSpace=wrap;" parent="1" vertex="1">
          <mxGeometry x="220" y="320" width="150" height="60" as="geometry" />
        </mxCell>
        <mxCell id="QMu5wvdfi34qKT-2nAmh-20" value="&lt;p style=&quot;margin:0px;margin-top:4px;text-align:center;&quot;&gt;&lt;br&gt;&lt;b&gt;cx-core:ConceptualObject&lt;/b&gt;&lt;/p&gt;" style="verticalAlign=top;align=left;overflow=fill;fontSize=12;fontFamily=Helvetica;html=1;whiteSpace=wrap;" parent="1" vertex="1">
          <mxGeometry x="220" y="390" width="150" height="60" as="geometry" />
        </mxCell>
        <mxCell id="QMu5wvdfi34qKT-2nAmh-21" value="«interface»&lt;br&gt;&lt;b&gt;Good&lt;/b&gt;" style="html=1;whiteSpace=wrap;" parent="1" vertex="1">
          <mxGeometry x="440" y="360" width="110" height="50" as="geometry" />
        </mxCell>
        <mxCell id="QMu5wvdfi34qKT-2nAmh-22" value="" style="endArrow=block;dashed=1;endFill=0;endSize=12;html=1;rounded=0;exitX=1;exitY=0.5;exitDx=0;exitDy=0;entryX=0;entryY=0.5;entryDx=0;entryDy=0;" parent="1" source="QMu5wvdfi34qKT-2nAmh-19" target="QMu5wvdfi34qKT-2nAmh-21" edge="1">
          <mxGeometry width="160" relative="1" as="geometry">
            <mxPoint x="580" y="100" as="sourcePoint" />
            <mxPoint x="470" y="225" as="targetPoint" />
          </mxGeometry>
        </mxCell>
        <mxCell id="QMu5wvdfi34qKT-2nAmh-23" value="" style="endArrow=block;dashed=1;endFill=0;endSize=12;html=1;rounded=0;exitX=1;exitY=0.5;exitDx=0;exitDy=0;entryX=0;entryY=0.5;entryDx=0;entryDy=0;" parent="1" source="QMu5wvdfi34qKT-2nAmh-20" target="QMu5wvdfi34qKT-2nAmh-21" edge="1">
          <mxGeometry width="160" relative="1" as="geometry">
            <mxPoint x="230" y="360" as="sourcePoint" />
            <mxPoint x="190" y="390" as="targetPoint" />
          </mxGeometry>
        </mxCell>
        <mxCell id="QMu5wvdfi34qKT-2nAmh-24" value="good" style="endArrow=open;endFill=1;endSize=12;html=1;rounded=0;entryX=0.5;entryY=0;entryDx=0;entryDy=0;exitX=0.475;exitY=1.038;exitDx=0;exitDy=0;exitPerimeter=0;" parent="1" source="QMu5wvdfi34qKT-2nAmh-2" target="QMu5wvdfi34qKT-2nAmh-21" edge="1">
          <mxGeometry width="160" relative="1" as="geometry">
            <mxPoint x="440" y="680" as="sourcePoint" />
            <mxPoint x="600" y="680" as="targetPoint" />
          </mxGeometry>
        </mxCell>
        <mxCell id="QMu5wvdfi34qKT-2nAmh-25" value="recipient" style="endArrow=open;endFill=1;endSize=12;html=1;rounded=0;entryX=0;entryY=0.75;entryDx=0;entryDy=0;exitX=0.681;exitY=1.192;exitDx=0;exitDy=0;exitPerimeter=0;" parent="1" source="QMu5wvdfi34qKT-2nAmh-2" target="QMu5wvdfi34qKT-2nAmh-15" edge="1">
          <mxGeometry width="160" relative="1" as="geometry">
            <mxPoint x="480" y="670" as="sourcePoint" />
            <mxPoint x="478" y="420" as="targetPoint" />
            <Array as="points">
              <mxPoint x="580" y="398" />
            </Array>
          </mxGeometry>
        </mxCell>
        <mxCell id="QMu5wvdfi34qKT-2nAmh-26" value="supplier" style="endArrow=open;endFill=1;endSize=12;html=1;rounded=0;entryX=0;entryY=0.25;entryDx=0;entryDy=0;exitX=0.869;exitY=0.962;exitDx=0;exitDy=0;exitPerimeter=0;" parent="1" source="QMu5wvdfi34qKT-2nAmh-2" target="QMu5wvdfi34qKT-2nAmh-15" edge="1">
          <mxGeometry width="160" relative="1" as="geometry">
            <mxPoint x="520" y="670" as="sourcePoint" />
            <mxPoint x="720" y="383" as="targetPoint" />
            <Array as="points">
              <mxPoint x="610" y="373" />
            </Array>
          </mxGeometry>
        </mxCell>
        <mxCell id="QMu5wvdfi34qKT-2nAmh-27" value="component" style="endArrow=open;endFill=1;endSize=12;html=1;rounded=0;entryX=0.25;entryY=1;entryDx=0;entryDy=0;exitX=0;exitY=0.5;exitDx=0;exitDy=0;" parent="1" source="QMu5wvdfi34qKT-2nAmh-6" target="QMu5wvdfi34qKT-2nAmh-21" edge="1">
          <mxGeometry x="0.2398" y="9" width="160" relative="1" as="geometry">
            <mxPoint x="680" y="692" as="sourcePoint" />
            <mxPoint x="505" y="370" as="targetPoint" />
            <Array as="points">
              <mxPoint x="468" y="560" />
            </Array>
            <mxPoint as="offset" />
          </mxGeometry>
        </mxCell>
        <mxCell id="QMu5wvdfi34qKT-2nAmh-28" value="assembly" style="endArrow=open;endFill=1;endSize=12;html=1;rounded=0;entryX=0.75;entryY=1;entryDx=0;entryDy=0;exitX=0;exitY=0.25;exitDx=0;exitDy=0;" parent="1" source="QMu5wvdfi34qKT-2nAmh-5" target="QMu5wvdfi34qKT-2nAmh-21" edge="1">
          <mxGeometry x="0.0673" y="-4" width="160" relative="1" as="geometry">
            <mxPoint x="690" y="702" as="sourcePoint" />
            <mxPoint x="478" y="420" as="targetPoint" />
            <Array as="points">
              <mxPoint x="523" y="570" />
            </Array>
            <mxPoint as="offset" />
          </mxGeometry>
        </mxCell>
        <mxCell id="QMu5wvdfi34qKT-2nAmh-30" value="supplier" style="endArrow=open;endFill=1;endSize=12;html=1;rounded=0;entryX=0.25;entryY=1;entryDx=0;entryDy=0;exitX=0.25;exitY=0;exitDx=0;exitDy=0;" parent="1" source="QMu5wvdfi34qKT-2nAmh-5" target="QMu5wvdfi34qKT-2nAmh-15" edge="1">
          <mxGeometry width="160" relative="1" as="geometry">
            <mxPoint x="695" y="690" as="sourcePoint" />
            <mxPoint x="533" y="420" as="targetPoint" />
          </mxGeometry>
        </mxCell>
        <mxCell id="QMu5wvdfi34qKT-2nAmh-31" value="assembler" style="endArrow=open;endFill=1;endSize=12;html=1;rounded=0;entryX=0.75;entryY=1;entryDx=0;entryDy=0;exitX=0.75;exitY=0;exitDx=0;exitDy=0;" parent="1" source="QMu5wvdfi34qKT-2nAmh-5" target="QMu5wvdfi34qKT-2nAmh-15" edge="1">
          <mxGeometry width="160" relative="1" as="geometry">
            <mxPoint x="735" y="670" as="sourcePoint" />
            <mxPoint x="748" y="420" as="targetPoint" />
          </mxGeometry>
        </mxCell>
        <mxCell id="QMu5wvdfi34qKT-2nAmh-33" value="&amp;lt;&amp;lt; DataRow &amp;gt;&amp;gt;&lt;br&gt;PartSeriesConstruction" style="html=1;whiteSpace=wrap;" parent="1" vertex="1">
          <mxGeometry x="-60" y="380" width="180" height="50" as="geometry" />
        </mxCell>
        <mxCell id="QMu5wvdfi34qKT-2nAmh-38" value="" style="edgeStyle=orthogonalEdgeStyle;rounded=0;orthogonalLoop=1;jettySize=auto;html=1;" parent="1" source="QMu5wvdfi34qKT-2nAmh-34" target="QMu5wvdfi34qKT-2nAmh-33" edge="1">
          <mxGeometry relative="1" as="geometry" />
        </mxCell>
        <mxCell id="QMu5wvdfi34qKT-2nAmh-34" value="&amp;lt;&amp;lt; DataRow &amp;gt;&amp;gt;&lt;br&gt;SerialPartDecomposition" style="html=1;whiteSpace=wrap;" parent="1" vertex="1">
          <mxGeometry x="-60" y="490" width="180" height="50" as="geometry" />
        </mxCell>
        <mxCell id="QMu5wvdfi34qKT-2nAmh-35" value="&amp;lt;&amp;lt; DataRow &amp;gt;&amp;gt;&lt;br&gt;SupplyChainInformation" style="html=1;whiteSpace=wrap;" parent="1" vertex="1">
          <mxGeometry x="-60" y="260" width="180" height="50" as="geometry" />
        </mxCell>
        <mxCell id="QMu5wvdfi34qKT-2nAmh-36" value="instantiates/is more concrete" style="endArrow=block;endSize=16;endFill=0;html=1;rounded=0;exitX=0.5;exitY=0;exitDx=0;exitDy=0;entryX=0.5;entryY=1;entryDx=0;entryDy=0;" parent="1" source="QMu5wvdfi34qKT-2nAmh-33" target="QMu5wvdfi34qKT-2nAmh-35" edge="1">
          <mxGeometry width="160" relative="1" as="geometry">
            <mxPoint x="330" y="490" as="sourcePoint" />
            <mxPoint x="490" y="490" as="targetPoint" />
          </mxGeometry>
        </mxCell>
        <mxCell id="QMu5wvdfi34qKT-2nAmh-37" value="instantiates/is more concrete" style="endArrow=block;endSize=16;endFill=0;html=1;rounded=0;exitX=0.5;exitY=0;exitDx=0;exitDy=0;entryX=0.5;entryY=1;entryDx=0;entryDy=0;" parent="1" source="QMu5wvdfi34qKT-2nAmh-34" target="QMu5wvdfi34qKT-2nAmh-33" edge="1">
          <mxGeometry width="160" relative="1" as="geometry">
            <mxPoint x="40" y="390" as="sourcePoint" />
            <mxPoint x="40" y="320" as="targetPoint" />
          </mxGeometry>
        </mxCell>
        <mxCell id="QMu5wvdfi34qKT-2nAmh-39" value="&amp;lt;&amp;lt; Service &amp;gt;&amp;gt;&lt;br&gt;BusinessPartnerManagement" style="html=1;whiteSpace=wrap;" parent="1" vertex="1">
          <mxGeometry x="1180" y="365" width="180" height="50" as="geometry" />
        </mxCell>
        <mxCell id="QMu5wvdfi34qKT-2nAmh-40" value="" style="endArrow=open;endFill=1;endSize=12;html=1;rounded=0;exitX=0.5;exitY=0;exitDx=0;exitDy=0;entryX=1;entryY=0.5;entryDx=0;entryDy=0;" parent="1" source="QMu5wvdfi34qKT-2nAmh-39" target="QMu5wvdfi34qKT-2nAmh-9" edge="1">
          <mxGeometry width="160" relative="1" as="geometry">
            <mxPoint x="690" y="490" as="sourcePoint" />
            <mxPoint x="850" y="490" as="targetPoint" />
            <Array as="points">
              <mxPoint x="1270" y="260" />
            </Array>
          </mxGeometry>
        </mxCell>
        <mxCell id="QMu5wvdfi34qKT-2nAmh-41" value="" style="endArrow=open;endFill=1;endSize=12;html=1;rounded=0;exitX=0.5;exitY=1;exitDx=0;exitDy=0;entryX=1;entryY=0.5;entryDx=0;entryDy=0;" parent="1" source="QMu5wvdfi34qKT-2nAmh-39" target="QMu5wvdfi34qKT-2nAmh-11" edge="1">
          <mxGeometry width="160" relative="1" as="geometry">
            <mxPoint x="1280" y="375" as="sourcePoint" />
            <mxPoint x="1110" y="270" as="targetPoint" />
            <Array as="points">
              <mxPoint x="1270" y="520" />
            </Array>
          </mxGeometry>
        </mxCell>
        <mxCell id="QMu5wvdfi34qKT-2nAmh-42" value="" style="endArrow=open;endFill=1;endSize=12;html=1;rounded=0;exitX=0;exitY=0.5;exitDx=0;exitDy=0;entryX=1;entryY=0.5;entryDx=0;entryDy=0;" parent="1" source="QMu5wvdfi34qKT-2nAmh-39" target="QMu5wvdfi34qKT-2nAmh-10" edge="1">
          <mxGeometry width="160" relative="1" as="geometry">
            <mxPoint x="1280" y="425" as="sourcePoint" />
            <mxPoint x="1110" y="530" as="targetPoint" />
          </mxGeometry>
        </mxCell>
        <mxCell id="QMu5wvdfi34qKT-2nAmh-43" value="" style="endArrow=open;endFill=1;endSize=12;html=1;rounded=0;exitX=0.75;exitY=0;exitDx=0;exitDy=0;entryX=-0.012;entryY=0;entryDx=0;entryDy=0;entryPerimeter=0;" parent="1" source="QMu5wvdfi34qKT-2nAmh-35" target="QMu5wvdfi34qKT-2nAmh-2" edge="1">
          <mxGeometry width="160" relative="1" as="geometry">
            <mxPoint x="1280" y="375" as="sourcePoint" />
            <mxPoint x="1110" y="270" as="targetPoint" />
            <Array as="points">
              <mxPoint x="75" y="127" />
            </Array>
          </mxGeometry>
        </mxCell>
        <mxCell id="QMu5wvdfi34qKT-2nAmh-44" value="" style="endArrow=open;endFill=1;endSize=12;html=1;rounded=0;exitX=0.75;exitY=1;exitDx=0;exitDy=0;entryX=0;entryY=0.5;entryDx=0;entryDy=0;" parent="1" source="QMu5wvdfi34qKT-2nAmh-34" target="QMu5wvdfi34qKT-2nAmh-7" edge="1">
          <mxGeometry width="160" relative="1" as="geometry">
            <mxPoint x="60" y="270" as="sourcePoint" />
            <mxPoint x="422" y="137" as="targetPoint" />
            <Array as="points">
              <mxPoint x="75" y="720" />
            </Array>
          </mxGeometry>
        </mxCell>
        <mxCell id="QMu5wvdfi34qKT-2nAmh-45" value="" style="endArrow=open;endFill=1;endSize=12;html=1;rounded=0;exitX=1;exitY=0.5;exitDx=0;exitDy=0;entryX=0;entryY=0.5;entryDx=0;entryDy=0;" parent="1" source="QMu5wvdfi34qKT-2nAmh-34" target="QMu5wvdfi34qKT-2nAmh-1" edge="1">
          <mxGeometry width="160" relative="1" as="geometry">
            <mxPoint x="85" y="550" as="sourcePoint" />
            <mxPoint x="695" y="735" as="targetPoint" />
            <Array as="points">
              <mxPoint x="190" y="515" />
              <mxPoint x="190" y="130" />
            </Array>
          </mxGeometry>
        </mxCell>
        <mxCell id="QMu5wvdfi34qKT-2nAmh-46" value="" style="endArrow=open;endFill=1;endSize=12;html=1;rounded=0;exitX=1;exitY=0.5;exitDx=0;exitDy=0;entryX=-0.025;entryY=0.038;entryDx=0;entryDy=0;entryPerimeter=0;" parent="1" source="QMu5wvdfi34qKT-2nAmh-33" target="QMu5wvdfi34qKT-2nAmh-2" edge="1">
          <mxGeometry width="160" relative="1" as="geometry">
            <mxPoint x="130" y="525" as="sourcePoint" />
            <mxPoint x="425" y="136" as="targetPoint" />
            <Array as="points">
              <mxPoint x="160" y="405" />
              <mxPoint x="160" y="127" />
            </Array>
          </mxGeometry>
        </mxCell>
        <mxCell id="QMu5wvdfi34qKT-2nAmh-47" value="" style="endArrow=open;endFill=1;endSize=12;html=1;rounded=0;exitX=1;exitY=0.75;exitDx=0;exitDy=0;entryX=0;entryY=0.5;entryDx=0;entryDy=0;" parent="1" source="QMu5wvdfi34qKT-2nAmh-33" target="QMu5wvdfi34qKT-2nAmh-7" edge="1">
          <mxGeometry width="160" relative="1" as="geometry">
            <mxPoint x="85" y="550" as="sourcePoint" />
            <mxPoint x="695" y="735" as="targetPoint" />
            <Array as="points">
              <mxPoint x="160" y="418" />
              <mxPoint x="160" y="720" />
            </Array>
          </mxGeometry>
        </mxCell>
      </root>
    </mxGraphModel>
  </diagram>
</mxfile>
